<svg xmlns="http://www.w3.org/2000/svg" viewBox="0 0 40 40"><path d="M29.68 18.72a16.4 16.4 0 0 1-1.85.19l-.16.52a7.93 7.93 0 0 1 1.15 0s.15 0 .17.17a3 3 0 0 1 .01.4.2.2 0 0 1-.18.15c-.18 0-1.44.08-1.44.08l-.2.69s-.08.15.09.11a12.88 12.88 0 0 1 1.65-.26.48.48 0 0 1 .33.52A3.25 3.25 0 0 1 27 22.34a1 1 0 0 1-.77-.54c-.34-.54.12-1.56.12-1.56s-.21-.48-.05-.65a.57.57 0 0 1 .34-.1l.33-.67a.74.74 0 0 1-.59-.24c-.2-.26-.21-.38-.06-.45a10.88 10.88 0 0 1 2.74-.32s.37 0 .69.59c0 0 .15.26-.11.32zm-3.96 2.57a.69.69 0 0 1-.92.45c-.44-.21-1.14-1.63-1.14-1.63s-.26-.53-.31-.51-.06-.11-.09.47 0 1.7-.23 1.88a.42.42 0 0 1-.62-.11 3.15 3.15 0 0 1-.1-1.54 4.61 4.61 0 0 1 .52-2.05.33.33 0 0 1 .54 0 6.35 6.35 0 0 1 .9 1.2l.09.17a8.41 8.41 0 0 0 .57.85.06.06 0 0 0 .08 0s0-.3 0-.3a15.34 15.34 0 0 0-.57-2.48.76.76 0 0 1 0-.39c0-.17.23-.09.23-.09a2.44 2.44 0 0 1 1.07 1.52 4.37 4.37 0 0 1 0 2.55zm-3.52-3c-.07.12-.1.29-.4.33a17.59 17.59 0 0 0-3.05.41s-.09.12.06.15.83.12 1.14.14 1.47 0 1.89.52a1.16 1.16 0 0 1 .23.8c0 .56-.11.76-.33 1s-2.2 1.08-3.47-.28a.72.72 0 0 1 .2-1.14s.57-.35 2 .06c0 0 .43.15.42.31s-.36.35-.85.34a1.57 1.57 0 0 1-.74-.2c.06 0-.51-.28-.69-.07s-.13.3 0 .42a3.14 3.14 0 0 0 2.65-.41s.2-.23-.11-.41a4.63 4.63 0 0 0-1.53-.3c-.32 0-1.54 0-1.72-.32 0 0-.17-.22 0-.84s1.61-.9 2.23-1c0 0 1.69-.07 2 .28a.23.23 0 0 1 0 .19zm-4.8 3.81a.66.66 0 0 1-.76-.09 4.18 4.18 0 0 1-.14-1.69 6.36 6.36 0 0 1 .26-2.32c.21-.19.34 0 .43.1a1 1 0 0 1 .22.57c0 .31.1 1.87.1 1.87s.09 1.42-.1 1.57zm1.47-7.77c-.15-.45-1-.39-1-.39a2.56 2.56 0 0 0-2.39 1.67 1 1 0 0 0 .3 1 .5.5 0 0 0 0 .45c0 .08.18.36.35.34s.2-.09.35-.37a1.78 1.78 0 0 0 1.36 0c.92-.32 1.83-1.24 1.83-2s-.8-.7-.8-.7zM16.11 16c-.08-.12-.07-.28.1-.57a1.31 1.31 0 0 1 1-.59 4.32 4.32 0 0 0-1.1 1.16zm2.9-.54a2 2 0 0 1-2.19.91 3.53 3.53 0 0 1 1.79-1.41c.63-.14.39.47.39.47zm14.31 2.74c-.87-.6-2.27 1.31-2.88 2.26a2.1 2.1 0 0 1 .23-1.1s.52-.9.59-1.08.12-.57 0-.61-.22.08-.22.08A4.13 4.13 0 0 0 29.72 20a1.9 1.9 0 0 0 .22 1.38 7.08 7.08 0 0 0-.89 3.33 1.42 1.42 0 0 0 .71 1c.24.1.29-.2.29-.2a12.74 12.74 0 0 1 .95-3.44c1.22.28 2.14-.91 2.47-1.49s.4-1.99-.15-2.38zm-.79 2.37a2.24 2.24 0 0 1-1.08.45 8.59 8.59 0 0 1 1.34-1.9c.36-.41.42 0 .42 0a1.81 1.81 0 0 1-.68 1.45zm-20.78-5.99s-4-2.05-7.32-.91A.52.52 0 0 0 4 14c-.19.27-.36.46-.26.66s.61.3 1.06.14c0 0 .21-.13 0-.21a2.43 2.43 0 0 0-.4-.11s-.13 0 0-.1a7.49 7.49 0 0 1 4.3.14c2.67.68 6.28 2.83 6.18 5.07s-3.61 2.34-3.61 2.34a7.86 7.86 0 0 1-1.69-.14c0-.73-.05-2-.05-2.75 1.38 0 2.76.23 2.87.58 0 0 .07.15-.24.3s-.5.23-.26.34a1.49 1.49 0 0 0 .56.14 1 1 0 0 0 .83-.87c.05-.62-.66-1.16-1.73-1.35a7.65 7.65 0 0 0-2-.17 4.67 4.67 0 0 0-.24-1.7c-.19-.26-.39-.6-.55-.21a7.44 7.44 0 0 0-.28 2 5.36 5.36 0 0 0-2.74 1.13.71.71 0 0 0 0 1 6.5 6.5 0 0 0 2.63 2 2.32 2.32 0 0 0 .21.87c.28.4.78.12.84.05s.09-.19.11-.51a7 7 0 0 0 3.77 0c2.32-.7 2.65-2.14 2.71-3s-.51-3.16-4.27-5.06zm-3.34 6.87A6 6 0 0 1 6 19.93a.26.26 0 0 1 .11-.45A7.13 7.13 0 0 1 8.49 19c0 .68.01 1.15-.08 2.45z"/></svg>